<svg xmlns="http://www.w3.org/2000/svg" style="display: none;">
  
    <symbol id="icon-search" viewBox="0 0 512 512">
      <path d="m17 452l30 30l94-94l-30-31z m284-431c-104 0-189 85-189 190c0 41 13 78 35 109l36 38c32 26 73 42 118 42c105 0 190-85 190-189c0-105-85-190-190-190z m0 336c-81 0-146-65-146-146c0-81 65-147 146-147c81 0 147 66 147 147c0 81-66 146-147 146z"/>
    </symbol>
  
    <symbol id="icon-bag" viewBox="0 0 512 512">
      <path d="m384 149l0-64l-64-64l-128 0l-64 64l0 64l-64 0l0 363l384 0l0-363z m-192-85l128 0l21 21l-170 0z m149 43l0 42l-21 0l0-42z m-42 0l0 42l-86 0l0-42z m-128 0l21 0l0 42l-21 0z m234 362l-298 0l0-277l298 0z"/>
    </symbol>
  
    <symbol id="icon-user" viewBox="0 0 512 512">
      <path d="m505 426c-36-85-105-125-158-143c24-33 37-81 37-140c1-99-81-126-124-127c-44 0-126 25-127 125c0 59 12 107 35 140c-54 18-123 56-161 141l-9 20l21 8c4 2 109 45 237 46c127 1 233-40 237-41l21-8z m-246-367c9 0 83 4 83 84c-1 64-18 112-48 133l-37 26l-36-27c-29-21-46-70-45-134c0-80 75-82 83-82z m-3 394c-86-1-163-22-199-34c39-69 105-95 156-106l44-9l45 10c50 11 116 39 154 108c-36 12-113 32-200 31z"/>
    </symbol>
  
    <symbol id="icon-menu" viewBox="0 0 512 512">
      <path d="m128 320l256 0 0 64-256 0z m0-96l256 0 0 64-256 0z m352-224l-448 0c-18 0-32 14-32 32l0 448c0 18 14 32 32 32l448 0c18 0 32-14 32-32l0-448c0-18-14-32-32-32z m-32 448l-384 0 0-384 384 0z m-320-320l256 0 0 64-256 0z"/>
    </symbol>
  
    <symbol id="icon-x" viewBox="0 0 512 512">
      <path d="m416 160l-64-64-96 96-96-96-64 64 96 96-96 96 64 64 96-96 96 96 64-64-96-96z"/>
    </symbol>
  
    <symbol id="icon-facebook" viewBox="0 0 512 512">
      <path d="m480 512l-448 0c-18 0-32-14-32-32l0-448c0-18 14-32 32-32l448 0c18 0 32 14 32 32l0 448c0 18-14 32-32 32z m-32-448l-384 0 0 384 384 0z m-192 128c0-35 29-64 59-64l37 0 0 64-32 0 0 32 32 0 0 64-32 0 0 96-64 0 0-96-32 0 0-64 32 0z"/>
    </symbol>
  
    <symbol id="icon-arrow-left" viewBox="0 0 512 512">
      <path d="m384 213l-192 0l0-96l-139 139l139 139l0-96l193 0c23 0 42-19 42-43c0-24-20-43-43-43z"/>
    </symbol>
  
</svg>
