<svg xmlns="http://www.w3.org/2000/svg" width="112" height="111.613" viewBox="0 0 112 111.613">
    <path d="M51.333 0L0 18.665v61.18l60.666 31.76v.007L112 79.85V21.98L51.333 0zM97.64 47.146L85.033 53.8c-.34.183-.69.263-1.026.253-.783-.02-1.477-.537-1.74-1.414-.377-1.247.242-2.75 1.39-3.353l12.61-6.655c1.147-.615 2.39-.09 2.768 1.157.375 1.25-.245 2.754-1.393 3.357zM61.437 45.28L10.39 24.054l18.763-6.822 50.637 19.65-18.354 8.396zm-1.124 56.42l-51.7-27.067V24.7l.495-.18 51.56 21.438v55.524l-.355.22zM87.72 33.255L38.07 13.99l13.268-4.824 49.688 18.003-13.307 6.084z"/>
</svg>
