<svg xmlns="http://www.w3.org/2000/svg" width="112" height="112" viewBox="0 0 112 112">
    <path d="M42.97 47.852c-1.692 0-2.995-.555-3.905-1.666-.91-1.106-1.36-2.46-1.36-4.055v-2.878c0-1.62.446-2.992 1.343-4.11.896-1.12 2.18-1.68 3.85-1.68 1.647 0 2.922.56 3.832 1.68.91 1.12 1.362 2.49 1.362 4.11v2.88c0 1.618-.438 2.976-1.325 4.073-.884 1.096-2.15 1.647-3.796 1.647zm26.096 16.26c-1.67 0-2.953.56-3.85 1.68-.897 1.118-1.345 2.478-1.345 4.073v2.916c0 1.597.468 2.954 1.4 4.075.934 1.12 2.226 1.68 3.867 1.68 1.746 0 3.043-.54 3.89-1.63.85-1.08 1.27-2.458 1.27-4.128V69.86c0-1.597-.452-2.954-1.362-4.074-.91-1.115-2.2-1.675-3.87-1.675zM97.01 66.99L104.497 84l-18.47 2.025L84 104.495l-17.01-7.48L56 112 45.01 97.01 28 104.497l-2.025-18.47L7.505 84l7.48-17.01L0 56l14.988-10.99L7.504 28l18.47-2.025L28 7.505l17.01 7.48L56 0l10.99 14.99L84 7.503l2.025 18.47L104.495 28l-7.48 17.01L112 56 97.01 66.99zM34.487 50.11c2.068 2.133 4.896 3.197 8.484 3.197 3.537 0 6.334-1.064 8.39-3.196 2.06-2.127 3.085-4.787 3.085-7.98v-2.878c0-3.215-1.025-5.894-3.084-8.036C49.31 29.074 46.487 28 42.897 28c-3.56 0-6.375 1.08-8.428 3.235-2.058 2.156-3.084 4.826-3.084 8.018v2.88c0 3.19 1.035 5.85 3.102 7.978zM71.424 36.6l-4.672-2.69-26.58 42.54 4.67 2.692 26.582-42.54zm9.193 33.27c0-3.19-1.027-5.856-3.085-8-2.054-2.142-4.878-3.216-8.466-3.216-3.537 0-6.342 1.078-8.41 3.234-2.066 2.155-3.102 4.815-3.102 7.98v2.916c0 3.188 1.034 5.855 3.103 8 2.067 2.14 4.896 3.214 8.483 3.214 3.537 0 6.338-1.063 8.392-3.197 2.058-2.126 3.085-4.8 3.085-8.016V69.87z"/>
</svg>
